<svg xmlns="http://www.w3.org/2000/svg" viewBox="0 0 100 160">
  <path d="M50 0 Q50 0 20 45 Q2 72 2 92 Q2 130 28 150 Q38 157 50 157 Q62 157 72 150 Q98 130 98 92 Q98 72 80 45 Z" fill="#00B4D8"/>
  <path d="M50 157 Q38 157 28 150 Q20 142 16 130 Q32 145 50 145 Q68 145 84 130 Q80 142 72 150 Q62 157 50 157Z" fill="#0096C7" opacity="0.4"/>
  <line x1="50" y1="60" x2="50" y2="105" stroke="white" stroke-width="3" stroke-linecap="round" opacity="0.7"/>
  <line x1="35" y1="75" x2="65" y2="75" stroke="white" stroke-width="3" stroke-linecap="round" opacity="0.7"/>
</svg>
